<svg version="1.1" id="Layer_1" xmlns="http://www.w3.org/2000/svg" xmlns:xlink="http://www.w3.org/1999/xlink" x="0px" y="0px"
	 width="100%" viewBox="0 0 960 960" enable-background="new 0 0 960 960" xml:space="preserve">
<path fill="#5E1914" opacity="1.000000" stroke="none" 
	d="
M540.000000,961.000000 
	C361.500000,961.000000 183.499985,960.986267 5.500057,961.093811 
	C1.750703,961.096069 0.905669,960.249084 0.906862,956.500000 
	C1.007745,639.500000 1.007745,322.500000 0.906862,5.500030 
	C0.905669,1.750889 1.750888,0.905669 5.500030,0.906862 
	C322.500000,1.007741 639.500000,1.007741 956.500000,0.906862 
	C960.249084,0.905669 961.094360,1.750888 961.093140,5.500029 
	C960.992249,322.500000 960.992249,639.500000 961.093140,956.500000 
	C961.094360,960.249084 960.249451,961.097168 956.499939,961.094177 
	C817.833313,960.982422 679.166687,961.000000 540.000000,961.000000 
z"/>
<path fill="#EC1703" opacity="1.000000" stroke="none" 
	d="
M89.006897,573.633179 
	C84.671593,567.800903 83.715134,560.576294 82.193871,553.634583 
	C73.919960,515.879517 71.800377,477.790161 76.553673,439.375793 
	C76.631561,438.746307 76.563416,438.098755 76.259819,437.421112 
	C72.698677,447.690521 71.622704,458.384186 71.122704,469.132660 
	C70.052589,492.137054 71.987862,515.107361 72.123772,538.100037 
	C72.148003,542.199646 72.127213,546.299500 71.376381,550.513611 
	C66.306442,542.875671 67.047493,533.573242 63.767574,525.499878 
	C66.742111,583.393982 84.402855,637.232727 110.021004,689.920959 
	C105.921707,688.537781 104.224831,686.221008 102.661911,684.010132 
	C100.264359,680.618591 97.829163,677.154846 96.106613,673.401978 
	C88.325386,656.449036 79.723457,639.866821 72.925369,622.467163 
	C72.561577,621.536011 72.244873,620.581970 71.813972,619.682861 
	C71.396141,618.810974 70.967163,617.611389 69.713531,618.093872 
	C68.583534,618.528809 68.795235,619.745300 68.934677,620.714783 
	C69.142677,622.160889 69.458443,623.591553 69.788292,625.347900 
	C67.629341,624.261230 67.393646,622.326904 66.706444,620.778259 
	C44.367054,570.434326 35.922440,517.629333 38.667805,462.815948 
	C40.173206,432.759399 46.894825,403.497131 51.301121,373.880127 
	C56.151493,341.278351 69.470421,312.463440 83.747223,283.768982 
	C98.282448,254.555145 116.842308,227.882278 138.548798,203.462494 
	C160.116028,179.199371 184.186813,157.701096 210.467102,138.674805 
	C216.537964,134.279648 222.847015,130.214447 229.019547,125.958359 
	C232.095856,123.837181 235.777939,122.436203 236.728485,117.997147 
	C236.989487,116.778328 239.151474,115.875587 240.551300,115.004860 
	C284.373077,87.746292 331.871735,69.969032 382.445679,60.229271 
	C432.824249,50.527149 483.310455,50.221992 534.172241,56.934452 
	C575.024841,62.325970 614.874329,71.045937 653.412537,85.642128 
	C685.184631,90.532951 710.613464,108.945778 736.762390,125.445839 
	C763.384216,142.244324 786.577454,163.345276 808.012573,186.372482 
	C829.460022,209.412994 847.827087,234.722336 863.583740,261.925446 
	C868.841309,271.002289 873.481567,280.435242 878.490417,289.658478 
	C880.491821,293.343781 881.357727,297.844238 886.196899,299.556366 
	C887.367004,299.970367 887.960510,302.253754 888.648560,303.755676 
	C907.693237,345.328400 919.280762,388.935974 924.240051,434.349701 
	C931.535767,501.158966 924.951172,566.537903 902.370850,629.880493 
	C864.022278,737.456116 792.621460,816.209839 691.568665,868.513916 
	C650.453735,889.794800 606.564209,902.339050 560.883301,909.100769 
	C547.195923,911.126831 533.506042,912.950989 519.713196,914.085327 
	C503.745605,915.398560 488.243896,911.773804 472.521637,910.291504 
	C428.445953,906.135864 386.325378,895.071899 345.929016,877.117920 
	C311.557312,861.841614 279.502686,842.907837 252.801514,816.095337 
	C239.760498,802.999939 225.293808,791.370239 213.389069,777.104370 
	C202.036621,763.500366 191.667297,749.257996 183.070404,733.752014 
	C182.426102,732.589905 181.315460,731.339600 181.380905,730.184631 
	C182.020081,718.903442 173.525436,711.939392 167.289673,705.413391 
	C140.843765,677.736389 120.882675,646.276001 106.815544,610.839844 
	C103.251236,601.861023 99.302551,593.030457 95.348045,584.213562 
	C94.173004,581.593689 94.128258,577.822510 89.679474,577.730713 
	C88.740715,577.711365 89.402229,576.001526 89.556503,574.727783 
	C89.577011,573.991272 89.418167,573.652039 89.006897,573.633179 
z"/>
<path fill="#5F1914" opacity="1.000000" stroke="none" 
	d="
M278.808838,224.237991 
	C284.255371,222.864761 289.346954,221.550156 295.477234,219.967377 
	C289.844696,217.298172 292.276276,215.735016 294.657013,212.896591 
	C299.438141,207.196304 306.603394,206.072266 312.599091,202.098816 
	C313.530243,201.591370 314.199188,201.410767 315.295990,201.756775 
	C315.519409,203.342651 313.592438,205.283295 316.327881,205.472382 
	C318.997681,205.656937 321.663696,204.656967 322.765747,201.786346 
	C323.220459,200.601883 323.084351,199.190567 323.375305,197.537689 
	C331.986176,199.193634 332.654236,198.890900 336.287323,190.811234 
	C336.737854,189.809189 337.238251,189.037445 338.241791,188.756790 
	C353.328064,184.537567 367.252106,177.254044 382.027740,172.164825 
	C390.354980,169.296631 398.798798,168.196579 407.386902,167.205124 
	C412.368622,166.630005 417.265625,165.573532 421.321869,162.281631 
	C422.107971,161.643661 423.363800,160.619720 423.883209,161.447906 
	C426.542236,165.687820 429.146606,162.203796 431.874695,161.763199 
	C436.631927,160.994888 441.465454,160.712173 446.254395,160.123322 
	C450.534698,159.596985 455.081635,160.406616 458.448730,156.204971 
	C460.097107,154.148102 469.217621,155.574142 471.103424,157.542343 
	C473.822266,160.379974 477.491974,160.498322 479.645905,157.329132 
	C482.055084,153.784317 484.231598,153.093094 486.852631,156.811264 
	C487.541168,157.788010 488.112671,158.325058 489.239380,157.713699 
	C494.016174,155.121796 498.653473,157.067825 503.321411,158.122299 
	C506.079163,158.745255 508.822052,159.466156 511.607910,159.920456 
	C513.242004,160.186935 515.495361,160.271027 516.128296,158.610199 
	C518.651733,151.989120 522.258606,154.332291 526.376282,157.225311 
	C530.287842,158.525986 534.505493,157.764206 537.446045,160.993408 
	C538.049377,161.655914 538.944946,161.057648 539.912842,160.383606 
	C543.984863,156.591278 547.785034,156.149826 551.816223,159.872772 
	C552.931763,160.903000 554.142883,160.480942 555.386169,159.532074 
	C558.832458,156.901733 561.829834,157.455490 563.973450,161.297348 
	C564.860474,162.887131 567.071655,163.262421 567.589478,165.571289 
	C563.985107,165.078461 560.587708,164.516144 557.167786,164.189209 
	C555.555115,164.035065 553.144836,163.903854 552.855164,165.706726 
	C552.491882,167.967636 555.125000,167.642059 556.541870,167.965958 
	C578.146484,172.904831 599.333984,179.168716 620.088684,186.989594 
	C637.747742,193.643967 654.281555,202.585449 670.849304,211.426620 
	C677.969360,215.226120 684.383972,220.342300 691.149963,224.813461 
	C693.620605,226.446152 694.846924,229.044083 696.491211,231.322357 
	C698.968018,234.754303 701.553406,238.006332 706.305847,238.189926 
	C707.585693,238.239365 708.448181,239.011475 709.126709,240.012817 
	C717.570679,252.474365 728.648926,262.701752 738.156372,274.259430 
	C744.804932,282.341766 751.546143,290.672516 755.824524,300.031494 
	C758.655212,306.223633 762.671631,311.778778 764.937561,318.189484 
	C765.191589,318.908203 764.910706,319.815979 764.705261,321.025787 
	C764.616821,321.263184 764.700928,321.110870 764.699280,321.205017 
	C763.252136,320.959412 762.783752,321.806458 762.642395,322.886871 
	C762.490173,324.050568 763.125427,324.830963 764.263611,324.988647 
	C765.412903,325.147949 766.599731,325.034149 767.750000,325.188965 
	C769.848572,325.471436 771.636230,325.915833 769.315796,328.459290 
	C767.428406,330.528168 767.942749,332.677521 769.566528,334.977325 
	C771.694275,333.444214 774.575439,328.384521 775.131470,335.763306 
	C781.355103,337.981964 778.570862,344.176392 780.622559,348.241547 
	C781.873596,350.720245 781.036377,353.335510 781.104980,355.899048 
	C781.331604,364.354065 782.907471,372.707611 788.404785,379.614288 
	C789.671936,381.206177 790.621399,382.117279 790.144165,384.626831 
	C789.063965,390.306183 792.765564,394.814514 795.851624,398.934357 
	C797.672302,401.364990 798.282349,403.256592 796.969238,405.549164 
	C793.412231,411.759308 795.540649,417.414886 799.208191,422.247711 
	C801.845703,425.723053 802.256897,428.811676 801.391724,432.731262 
	C800.778625,435.508881 799.840210,438.643188 804.714905,439.096191 
	C806.938293,439.302856 807.631104,441.255096 806.573242,443.718384 
	C804.827881,447.782532 804.858459,451.930695 805.886047,456.361786 
	C809.480286,471.858978 807.514954,487.541138 806.717102,503.150574 
	C806.215271,512.970093 805.484131,522.771484 806.470947,532.589783 
	C806.638184,534.253662 806.185059,535.079041 804.828247,536.239929 
	C802.008911,538.652161 800.658813,541.458557 802.055298,545.797302 
	C803.395813,549.962158 804.010071,554.751343 800.096008,558.711121 
	C796.883423,561.961304 796.457581,566.475769 796.136841,570.818115 
	C795.573181,578.448730 794.998962,585.994629 786.500732,589.546631 
	C785.030029,590.161438 785.031616,591.657288 785.070251,593.006470 
	C785.386780,604.061829 779.031860,612.766541 773.672485,621.315979 
	C771.321838,625.065674 769.911865,629.746643 767.187317,632.493225 
	C762.663696,637.053528 760.521545,643.140015 755.637207,647.362427 
	C749.916931,652.307373 745.778870,658.587952 743.720093,666.078735 
	C742.957214,668.854309 740.862061,670.922668 739.062866,673.113159 
	C733.999634,679.277527 727.754822,684.460571 723.769043,691.522034 
	C723.530640,691.944275 723.115845,692.644775 722.845703,692.616577 
	C713.936951,691.685425 715.096375,700.867493 710.915710,704.701050 
	C708.818176,706.624390 708.808044,710.543274 704.336243,710.029480 
	C702.148438,709.778137 702.153870,711.951416 702.575989,713.762573 
	C703.070190,715.882996 703.688477,717.642883 706.480774,717.007324 
	C711.891479,715.775696 715.476501,712.181335 718.495605,707.845764 
	C722.198425,702.528503 725.086792,696.617554 730.250122,691.848511 
	C732.569824,693.550232 734.058411,693.074707 735.182861,690.216675 
	C736.038330,688.616394 736.858398,687.375916 737.574097,686.077759 
	C738.276550,684.803650 738.404419,682.739441 740.109802,682.693420 
	C742.190796,682.637207 740.940125,684.765747 741.475464,685.743713 
	C742.966309,688.467712 744.131104,686.603760 744.943787,685.184143 
	C747.159668,681.313599 750.460449,678.628113 754.010986,676.077942 
	C756.648560,674.183655 757.889160,675.734741 759.193054,677.615295 
	C760.792969,679.922607 759.842712,681.321960 757.492859,682.129395 
	C752.734253,683.764465 749.928955,687.375244 747.814026,691.669250 
	C745.252197,696.870728 742.235901,701.568726 736.040833,702.994446 
	C735.573730,703.102051 734.863281,703.357849 734.766296,703.690552 
	C732.587341,711.169922 723.104553,712.668945 721.103027,720.663452 
	C721.858093,724.916626 718.429016,725.727478 716.214783,727.016724 
	C714.202515,728.188477 711.654053,728.439575 709.720032,730.578979 
	C702.204407,734.630005 696.828918,741.134583 689.516174,744.907104 
	C684.722839,747.380005 680.904602,751.481018 677.233521,752.721375 
	C686.616577,746.168274 698.675598,740.804016 708.662354,732.205261 
	C709.216370,731.728333 709.325684,731.085266 709.902100,730.232178 
	C714.743713,727.667358 719.174866,725.029663 724.032227,722.388306 
	C731.477905,717.999817 738.095398,713.147583 743.447754,706.240845 
	C743.901367,705.161987 743.403809,704.138428 744.726074,703.459595 
	C745.481445,703.408691 745.932434,703.488525 746.695129,703.716492 
	C747.805969,703.979004 748.605713,704.031921 749.701111,703.820923 
	C751.116516,702.292725 752.238281,700.833496 753.624329,699.161987 
	C754.176147,698.611023 754.544617,698.472717 755.148438,698.776245 
	C755.775818,702.959045 754.207520,706.211731 751.933350,709.203918 
	C748.508728,713.709839 744.761169,717.990173 742.378662,723.208252 
	C741.691284,724.713623 740.575806,725.685791 738.830017,725.284058 
	C735.547913,724.528625 734.252747,725.898682 734.064941,729.119202 
	C733.860107,732.631409 731.463684,734.824036 728.657410,736.457764 
	C725.493835,738.299377 722.182922,739.887268 718.940247,741.593445 
	C716.419434,742.919800 713.263123,744.153503 712.423340,746.781128 
	C710.804443,751.846497 706.425659,753.394226 702.841431,756.207581 
	C689.838013,766.414124 675.193359,773.472595 659.916016,779.381775 
	C652.180115,782.374023 645.098450,787.058044 636.728882,788.405884 
	C634.012512,788.843262 633.338684,791.464294 631.794128,793.079834 
	C626.969482,798.126221 620.473572,796.955444 614.635376,797.978577 
	C604.887756,799.686829 595.435364,802.151550 586.604309,806.705200 
	C585.265259,807.395630 583.994080,808.122131 582.368103,807.838074 
	C577.351562,806.961609 572.407227,807.991028 567.029358,808.537964 
	C565.872803,808.293152 565.321594,808.875854 564.327393,809.042542 
	C560.798279,809.945862 557.611938,810.808899 554.071167,811.808777 
	C553.430359,812.478760 553.277222,813.127136 552.246704,813.242554 
	C550.503479,811.830200 549.218506,810.229492 546.947876,810.246765 
	C545.508301,810.257751 544.231934,810.460632 544.050842,812.238403 
	C543.856323,814.148132 544.973511,814.442139 546.552612,814.309937 
	C547.814575,814.204224 549.574890,813.710022 549.729919,815.627747 
	C549.858582,817.220215 548.162842,817.579224 546.940674,818.048340 
	C542.588867,819.718933 537.800598,819.877869 533.628296,818.822510 
	C527.300476,817.221985 521.514648,819.678406 515.473816,819.584045 
	C511.757568,819.525940 508.462189,820.484436 504.256195,818.663330 
	C500.756042,817.147766 494.990112,817.200256 489.626617,818.147949 
	C492.128479,821.058411 495.431335,820.952820 498.120972,822.101868 
	C498.982178,822.469727 500.306519,822.542236 499.914246,823.941223 
	C499.601959,825.054749 498.283417,825.576416 497.481628,825.172485 
	C483.719452,818.240662 468.666962,823.737366 454.355560,820.508362 
	C438.816864,817.002380 423.081726,813.672607 407.010101,813.062744 
	C405.559174,813.007629 404.826843,812.345337 404.064819,810.954712 
	C402.102814,807.374084 399.314331,805.891602 394.722778,806.518250 
	C390.022766,807.159668 384.901123,807.380005 381.224854,802.554871 
	C378.340576,798.769226 373.563232,798.090576 369.148621,797.167542 
	C361.847900,795.640991 354.557281,794.163330 351.990143,785.606873 
	C351.587830,784.265930 350.339630,784.050781 349.163971,783.942383 
	C338.355621,782.945435 330.508118,775.939270 322.666565,769.737488 
	C319.217651,767.009705 314.599731,764.702759 312.481171,761.440552 
	C308.783752,755.747253 302.651825,753.021667 298.905640,747.603271 
	C294.412476,741.104492 288.493652,736.006104 280.969238,732.903748 
	C277.361328,731.416199 275.135895,728.020691 272.550720,725.202820 
	C268.170471,720.428467 264.563751,714.911316 259.079559,711.194641 
	C258.680603,710.924255 258.041046,710.460266 258.082886,710.167908 
	C259.323517,701.503174 250.805649,700.726685 246.749603,696.449341 
	C244.868011,694.465088 241.867706,693.838867 242.851654,690.029541 
	C243.422806,687.818298 241.614166,687.227844 239.697754,687.406494 
	C237.516968,687.609924 235.770569,688.249451 236.001541,691.014221 
	C236.368073,695.401306 238.355072,699.028748 241.475281,701.937317 
	C245.493042,705.682617 249.784775,709.132263 253.883011,712.793762 
	C255.287964,714.049011 257.241394,715.188965 254.261002,717.290039 
	C252.380707,718.615601 254.059052,720.653931 254.938843,722.189575 
	C255.891144,723.851990 256.622040,723.916748 258.934967,723.328491 
	C261.620270,722.645569 265.600403,725.195129 266.834320,728.060974 
	C268.214722,731.266846 263.706268,728.886108 262.673340,731.251221 
	C266.617371,734.252991 269.757629,738.151794 271.943909,742.912354 
	C273.475403,746.247253 271.323029,747.137268 269.295929,748.128235 
	C266.831146,749.333130 266.043732,747.504578 265.610291,745.557007 
	C264.464203,740.407288 260.779572,737.344788 256.682404,734.629761 
	C252.357117,731.763550 248.956207,728.293396 248.396271,722.781555 
	C248.315933,721.990662 247.944351,720.643555 247.516083,720.562256 
	C241.693268,719.456482 241.703278,713.243103 238.224075,710.134949 
	C237.230804,709.247681 236.421600,708.008911 235.274887,707.463806 
	C230.344711,705.120483 227.967529,702.096985 226.316422,696.109436 
	C224.398163,689.153076 221.639359,681.269897 215.251450,676.086731 
	C213.870529,674.966248 212.491898,673.442322 214.410095,671.476746 
	C214.929993,670.944092 214.823898,670.171204 214.294662,669.677429 
	C209.150330,664.877075 207.724503,657.862793 204.012909,651.716614 
	C202.075134,653.457764 202.383911,655.224548 202.640839,656.947937 
	C203.138672,660.287170 204.664566,663.264099 205.900848,666.359558 
	C211.396729,680.120850 219.344391,692.577271 226.492630,705.460266 
	C227.381271,707.061829 228.171219,708.719727 228.965805,710.371338 
	C230.141769,712.815491 230.181870,715.870056 228.440399,717.343140 
	C226.702026,718.813599 225.053436,716.016663 223.688904,714.777832 
	C216.665543,708.401978 209.017899,702.632812 203.345322,694.903259 
	C201.349167,692.183350 197.737122,689.381409 203.379608,686.127869 
	C205.338516,684.998230 204.549377,681.543091 203.529434,679.574036 
	C202.243652,677.091614 199.485260,674.937561 196.917313,675.132385 
	C194.028305,675.351624 193.794556,673.828430 192.674026,672.203491 
	C188.705215,666.448303 187.073395,659.793823 185.020966,653.301453 
	C179.803482,636.797241 175.915009,619.822021 167.594025,604.425598 
	C166.750031,602.863892 166.921555,601.208191 167.042145,599.540466 
	C167.881836,587.927368 166.324844,576.584656 162.979080,565.482910 
	C162.232117,563.004333 162.232178,560.687622 162.543839,558.143738 
	C163.618240,549.373840 163.239029,540.667114 160.720963,531.418701 
	C156.661819,535.400879 160.847336,540.706116 156.669601,543.966919 
	C154.363907,517.776367 156.693588,491.884125 162.100998,466.041656 
	C158.158524,470.586914 156.127716,475.870178 154.553955,481.358154 
	C153.919281,483.571381 153.787186,485.897858 151.327835,487.216888 
	C149.594269,488.146576 150.034058,490.126953 150.034378,491.763824 
	C150.035629,498.094421 150.394119,504.447235 149.964981,510.747192 
	C149.709259,514.501099 150.666550,519.369385 144.752777,520.580811 
	C143.432022,520.851379 143.465927,523.130981 143.168442,524.583496 
	C142.618912,527.266541 142.124496,529.960876 141.392746,533.764954 
	C138.418808,529.450256 138.545273,525.726257 138.097916,522.231750 
	C136.269684,507.949768 137.095810,493.614136 137.463501,479.290588 
	C137.578949,474.793243 137.739334,470.294434 137.721558,465.796936 
	C137.689621,457.714050 137.639832,457.714233 143.185410,450.264954 
	C144.136948,455.856232 141.071091,461.634674 145.781738,467.816650 
	C146.999329,458.926605 147.981766,451.435150 149.056564,443.956970 
	C156.790848,390.143005 173.381409,339.569794 203.968262,294.131042 
	C210.490036,284.442474 217.547760,275.159271 225.292740,266.414154 
	C226.197952,265.392029 226.987915,263.311768 228.654129,264.113831 
	C230.193222,264.854706 229.303955,266.807129 229.259186,268.252655 
	C229.213516,269.727051 228.694092,271.216888 229.440506,272.778748 
	C231.892929,272.962463 232.745605,270.828247 233.891678,269.426239 
	C242.539841,258.846771 251.038635,248.145309 259.673798,237.555115 
	C264.739807,231.342117 270.297272,225.584579 276.678925,220.693954 
	C278.033264,219.656052 279.205841,217.962555 281.428436,218.474762 
	C281.863739,220.774902 279.726379,221.539108 278.717834,223.301514 
	C278.517120,223.821136 278.485535,224.058868 278.808838,224.237991 
z"/>
<path fill="#661913" opacity="1.000000" stroke="none" 
	d="
M353.528259,834.365417 
	C348.802155,831.842896 344.557556,829.081726 339.941376,827.264526 
	C324.600647,821.225708 311.552002,811.496765 298.575043,801.741699 
	C294.089355,798.369690 287.842834,796.914246 285.513092,790.859985 
	C285.204865,790.059021 284.133270,789.775208 283.340790,790.250732 
	C279.631866,792.476318 278.538544,790.317871 277.474091,787.182800 
	C276.264587,783.620789 273.053528,781.449280 270.126526,778.268311 
	C273.889221,778.313782 277.598572,780.883118 280.293793,776.928345 
	C280.695984,776.338196 282.053406,777.502258 282.730133,778.211121 
	C307.926697,804.601196 341.122711,817.837769 373.054932,833.148438 
	C376.206787,834.659668 379.418976,836.044617 382.591736,837.512939 
	C383.495758,837.931335 385.053192,838.341125 385.132721,838.917542 
	C385.818756,843.889038 389.096497,844.588013 393.215790,844.314392 
	C394.055847,844.258667 394.786194,845.018372 394.706024,845.978821 
	C394.596771,847.287842 393.443817,847.390991 392.482697,847.464294 
	C388.759705,847.748352 385.174194,847.012817 381.736694,845.654602 
	C375.101257,843.033081 368.741119,839.742615 361.355286,839.277832 
	C358.366669,839.089844 356.480988,835.957825 353.528259,834.365417 
z"/>
<path fill="#6E1912" opacity="1.000000" stroke="none" 
	d="
M236.079498,729.287720 
	C234.290100,725.980103 233.020752,722.791016 232.784470,718.215210 
	C235.608307,722.003906 237.833725,725.123596 240.217041,728.117615 
	C241.099915,729.226746 241.959000,730.676392 243.720108,730.566956 
	C247.329056,730.342651 247.545227,730.381714 246.488754,733.815552 
	C245.512558,736.988586 246.460358,739.166931 248.731705,741.317688 
	C251.126602,743.585571 253.240326,746.150269 255.737686,748.793457 
	C256.140961,749.320374 256.283356,749.639221 256.162140,750.410645 
	C245.828247,744.812073 236.387558,738.028503 228.753723,728.498169 
	C231.790100,727.161865 232.600632,729.658936 234.531586,730.236572 
	C235.455246,730.344604 236.376556,730.800781 236.079498,729.287720 
z"/>
<path fill="#6D1912" opacity="1.000000" stroke="none" 
	d="
M755.626221,698.822205 
	C754.996094,699.041260 754.679016,699.025330 754.125610,698.973022 
	C760.815918,688.680237 769.558838,679.899719 777.597534,670.121521 
	C778.461792,669.590637 779.117249,669.421509 780.178589,669.751953 
	C777.095947,676.572205 773.383789,682.865967 768.892761,688.684509 
	C765.441956,693.155273 760.887451,696.119751 755.626221,698.822205 
z"/>
<path fill="#88180E" opacity="1.000000" stroke="none" 
	d="
M780.770203,669.892578 
	C779.947083,670.055237 779.346680,670.002075 778.294800,669.925903 
	C785.165833,659.927307 793.136475,650.420166 799.695068,639.788879 
	C798.757935,644.247620 797.837341,649.002625 794.644775,652.074829 
	C789.186035,657.327820 785.044128,663.426025 780.770203,669.892578 
z"/>
<path fill="#CB1707" opacity="1.000000" stroke="none" 
	d="
M724.095154,722.239136 
	C720.165710,725.473511 715.887695,728.588989 711.296753,731.841309 
	C709.714111,732.000183 708.068298,733.118835 707.812866,730.441162 
	C709.703674,727.246887 711.938660,725.619934 715.449097,725.499939 
	C717.765320,725.420776 719.870605,724.171997 720.864075,721.317993 
	C721.935059,721.375854 722.840820,721.747986 724.095154,722.239136 
z"/>
<path fill="#D11706" opacity="1.000000" stroke="none" 
	d="
M734.976685,689.888062 
	C735.384827,691.570190 738.724243,689.562805 737.788818,691.730408 
	C736.747192,694.143799 734.727722,696.551147 731.869751,696.461731 
	C729.251282,696.379883 730.796631,693.920898 730.601074,692.003601 
	C731.585510,690.140991 733.111755,689.952942 734.976685,689.888062 
z"/>
<path fill="#88180E" opacity="1.000000" stroke="none" 
	d="
M552.026733,813.510254 
	C552.367004,812.863647 552.797241,812.526123 553.472046,812.067139 
	C556.217285,814.030334 559.143738,812.351257 562.082153,812.796631 
	C558.980713,817.174622 555.664673,816.673950 552.026733,813.510254 
z"/>
<path fill="#B81709" opacity="1.000000" stroke="none" 
	d="
M539.876587,160.155655 
	C538.492432,163.389603 536.022034,161.928146 533.738342,161.180099 
	C531.384033,160.408920 529.066528,159.508575 526.915833,157.616913 
	C526.879639,157.289062 527.062866,157.212524 527.532593,157.054108 
	C531.324829,156.669952 534.244751,158.640625 537.786377,159.729370 
	C538.582825,160.031860 539.054871,160.063339 539.876587,160.155655 
z"/>
<path fill="#82180F" opacity="1.000000" stroke="none" 
	d="
M502.761353,155.459045 
	C501.352509,154.618317 500.432739,153.557297 502.446991,153.164047 
	C504.199310,152.821960 506.651825,152.185577 507.372009,154.882645 
	C507.727722,156.214722 506.439240,156.375916 505.412109,156.212540 
	C504.608490,156.084732 503.832245,155.784927 502.761353,155.459045 
z"/>
<path fill="#82180F" opacity="1.000000" stroke="none" 
	d="
M323.506653,196.820923 
	C323.533630,197.192932 323.549988,197.129471 323.578613,197.145172 
	C322.949554,196.682953 322.253113,196.249222 321.643921,195.715836 
	C320.891479,195.057007 318.944305,195.096008 319.801056,193.450912 
	C320.405090,192.290985 321.879211,191.586227 323.180115,191.868393 
	C325.350494,192.339157 323.941681,193.888046 323.805176,195.016174 
	C323.746704,195.499802 323.591125,195.971680 323.506653,196.820923 
z"/>
<path fill="#82180F" opacity="1.000000" stroke="none" 
	d="
M537.999390,159.662811 
	C534.604797,160.149948 531.518311,158.843460 528.168701,157.104370 
	C531.685730,155.572479 534.926453,156.851624 537.999390,159.662811 
z"/>
<path fill="#82180F" opacity="1.000000" stroke="none" 
	d="
M315.897034,201.947418 
	C315.062866,202.078476 314.446503,202.038864 313.368042,201.968246 
	C314.389832,200.178619 316.013062,198.612244 318.675140,197.803467 
	C318.660553,199.889954 316.984955,200.596649 315.897034,201.947418 
z"/>
<path fill="#B81709" opacity="1.000000" stroke="none" 
	d="
M235.751190,729.294434 
	C237.454422,730.024597 238.904022,731.071228 239.732391,733.276672 
	C237.471954,733.493896 236.411850,731.992126 234.999741,730.619995 
	C235.079468,730.089478 235.333435,729.808105 235.751190,729.294434 
z"/>
<path fill="#6D1912" opacity="1.000000" stroke="none" 
	d="
M744.752441,703.217041 
	C744.688232,704.081299 744.345947,704.833740 743.840942,705.772827 
	C742.908203,705.282410 741.099182,705.394836 741.356506,704.078064 
	C741.674438,702.451111 743.263855,702.950867 744.752441,703.217041 
z"/>
<path fill="#96180C" opacity="1.000000" stroke="none" 
	d="
M256.044983,751.042480 
	C255.916687,750.552979 255.934921,750.242798 255.975800,749.467102 
	C257.295471,749.611572 258.997864,750.361755 258.500885,751.899719 
	C258.180115,752.892395 256.932739,751.727539 256.044983,751.042480 
z"/>
<path fill="#6D1912" opacity="1.000000" stroke="none" 
	d="
M749.621216,703.764099 
	C749.187500,704.437439 748.311523,704.580688 747.180786,703.975586 
	C747.753784,703.835083 748.500793,703.805664 749.621216,703.764099 
z"/>
<path fill="#88180E" opacity="1.000000" stroke="none" 
	d="
M564.208862,809.136475 
	C564.634277,808.915588 565.283936,808.748352 566.273804,808.578247 
	C565.886963,808.780273 565.160034,808.985168 564.208862,809.136475 
z"/>
<path fill="#5E1914" opacity="1.000000" stroke="none" 
	d="
M89.056679,574.023499 
	C88.823769,573.114807 88.672401,571.812134 89.421608,571.859619 
	C90.289215,571.914612 89.898926,573.146729 89.697128,574.153320 
	C89.588669,574.395813 89.232689,574.149475 89.056679,574.023499 
z"/>
<path fill="#88180E" opacity="1.000000" stroke="none" 
	d="
M801.477661,636.547363 
	C801.481323,636.579956 801.473999,636.514832 801.477661,636.547363 
z"/>
<path fill="#661913" opacity="1.000000" stroke="none" 
	d="
M267.539154,776.462769 
	C267.530365,776.430054 267.547943,776.495422 267.539154,776.462769 
z"/>
<path fill="#5F1914" opacity="1.000000" stroke="none" 
	d="
M764.565918,321.395386 
	C764.532654,321.415466 764.814270,321.311523 764.814270,321.311523 
	C764.814270,321.311523 764.731323,321.271271 764.672363,321.361389 
	C764.613464,321.451538 764.599121,321.375305 764.565918,321.395386 
z"/>
<path fill="#EC1703" opacity="1.000000" stroke="none" 
	d="
M657.171021,624.422241 
	C648.634766,626.525818 640.333557,627.125366 631.988586,627.112915 
	C585.505615,627.043579 539.022644,626.932922 492.539734,626.809814 
	C490.715790,626.804993 488.865417,626.680237 487.073547,626.356201 
	C478.027496,624.720215 474.670563,617.700684 479.195435,609.752747 
	C501.285004,570.951843 523.414062,532.173462 545.528259,493.386688 
	C556.832947,473.559021 568.137756,453.731476 579.438171,433.901428 
	C583.166626,427.358704 582.872131,426.678802 575.146423,426.253357 
	C550.188843,424.878876 525.214233,424.136749 500.214203,424.656647 
	C492.718994,424.812531 485.222412,425.065063 477.727631,425.029510 
	C471.109589,424.998108 469.152832,422.139008 471.615234,416.192535 
	C479.836639,396.338623 488.201172,376.543945 496.407288,356.683807 
	C499.203522,349.916412 504.516632,346.346893 511.148621,344.266479 
	C518.897400,341.835693 526.902100,341.805969 534.911072,341.796631 
	C569.751221,341.756134 604.503906,344.147491 639.290894,345.565887 
	C658.601196,346.353271 677.902893,347.302216 697.236328,347.325592 
	C704.279053,347.334106 706.216125,350.288269 703.629822,356.998840 
	C702.915222,358.853088 701.853333,360.577087 700.910461,362.339233 
	C670.101135,419.919830 639.284058,477.496216 608.476807,535.077942 
	C604.225708,543.023804 604.828796,544.084290 613.788330,544.071655 
	C637.933594,544.037598 662.106934,544.890808 686.141174,541.460632 
	C690.070007,540.899902 694.135803,540.987244 698.117798,541.185730 
	C703.803528,541.469177 705.950012,544.948303 703.451172,549.979309 
	C692.631714,571.762207 681.713684,593.496460 670.750244,615.207336 
	C668.048950,620.556702 662.908630,622.650635 657.171021,624.422241 
z"/>
<path fill="#EC1703" opacity="1.000000" stroke="none" 
	d="
M334.990051,637.262451 
	C318.486694,637.207825 302.484467,637.134155 286.809357,633.188904 
	C280.644867,631.637390 274.755646,629.404724 269.028168,626.631104 
	C265.527832,624.935974 263.911896,622.752991 263.761597,618.607849 
	C262.982819,597.131348 261.826355,575.668762 260.868073,554.198364 
	C260.769501,551.990479 259.723694,549.251099 262.391174,547.865356 
	C265.304901,546.351746 267.453766,548.369934 269.457947,550.151733 
	C281.553009,560.904724 295.172485,568.605042 311.460388,570.679565 
	C321.819336,571.998962 332.119263,571.813293 341.876099,567.376099 
	C354.431763,561.666077 356.969299,549.739197 347.847626,539.320923 
	C346.431946,537.704041 344.804230,536.217468 343.076996,534.937195 
	C324.859283,521.433960 307.709229,506.607941 290.167542,492.269501 
	C271.798798,477.255005 263.323578,457.568359 261.189301,434.098175 
	C258.455078,404.030487 265.852173,378.323792 289.347473,358.305511 
	C300.930115,348.437012 314.195740,341.571045 328.586914,336.883240 
	C357.949585,327.318604 387.430603,326.334778 416.980835,336.113068 
	C418.719330,336.688385 420.419983,337.377014 422.148743,337.982941 
	C433.375824,341.917725 439.888062,348.282654 439.594849,361.729218 
	C439.203613,379.670685 441.106476,397.660339 441.953918,415.632568 
	C442.091827,418.557373 442.751801,421.920563 439.186218,423.476959 
	C435.566071,425.057190 433.254913,422.632111 430.954559,420.364349 
	C423.232330,412.751587 415.338013,405.369507 405.880310,399.849640 
	C392.597351,392.097198 378.434814,389.868042 363.481964,393.074402 
	C354.957245,394.902374 347.914062,399.283875 346.399017,408.472931 
	C344.774261,418.327301 345.658356,427.784576 355.259613,434.193573 
	C370.918091,444.645905 386.420929,455.331573 401.979095,465.934021 
	C410.959076,472.053650 419.382050,478.847351 426.601044,487.009216 
	C455.354401,519.518127 454.707520,566.107239 424.487793,598.187683 
	C400.474152,623.679871 370.589905,636.616211 334.990051,637.262451 
z"/>
<path fill="#DF1704" opacity="1.000000" stroke="none" 
	d="
M707.662842,730.087891 
	C708.855713,730.589539 709.681274,731.113037 710.745361,731.807251 
	C699.332520,744.204590 675.972534,757.425354 669.363708,755.160278 
	C671.623474,752.826965 674.710754,752.166138 677.002441,750.394226 
	C683.906982,745.055481 692.431091,742.082397 698.429504,735.383728 
	C700.740417,732.803101 703.708740,730.804077 707.662842,730.087891 
z"/>
<path fill="#D41706" opacity="1.000000" stroke="none" 
	d="
M212.954605,692.909546 
	C211.093262,696.131409 209.629684,693.442444 208.265137,692.680542 
	C206.910568,691.924194 205.010620,690.704834 205.448547,689.035278 
	C206.000595,686.930664 208.079102,686.801575 209.813263,687.843628 
	C211.546570,688.885193 212.618958,690.546875 212.954605,692.909546 
z"/>
<path fill="#CB1707" opacity="1.000000" stroke="none" 
	d="
M776.033264,350.223694 
	C775.668579,349.302338 775.730042,348.397552 776.529480,348.577454 
	C778.536621,349.029114 778.612915,350.640625 778.530396,352.357208 
	C777.093506,352.244568 776.799011,351.158539 776.033264,350.223694 
z"/>
<path fill="#EC1703" opacity="1.000000" stroke="none" 
	d="
M279.010315,224.030029 
	C278.715118,224.573380 278.386078,224.631165 278.445435,223.735306 
	C278.548676,223.583420 278.856903,223.880692 279.010315,224.030029 
z"/>
<path fill="#EC1703" opacity="1.000000" stroke="none" 
	d="
M275.651611,225.598190 
	C275.666382,225.715103 275.828888,225.574234 275.828888,225.574234 
	C275.828888,225.574234 275.636871,225.481277 275.651611,225.598190 
z"/>
<path fill="#EC1703" opacity="1.000000" stroke="none" 
	d="
M275.650330,225.639984 
	C275.624542,225.624344 275.809021,225.882996 275.809021,225.882996 
	C275.809021,225.882996 275.813080,225.870132 275.739746,225.792618 
	C275.666382,225.715103 275.676117,225.655624 275.650330,225.639984 
z"/>
<path fill="#EC1703" opacity="1.000000" stroke="none" 
	d="
M773.539612,337.522369 
	C773.574829,337.508575 773.504395,337.536163 773.539612,337.522369 
z"/>
</svg>